:version 1.10
:name ASF
:units
  mass 1
  length 1
  angle deg
:documentation
  ASF file generated by Kaydara
:root
  axis xyz
  order  tx ty tz rx ry rz
  position 0 0 0
  orientation 0 0 0
:bonedata
  begin
    id 1
    name RightUpLegDummy
    direction -0.718183 -0.695806 0.00816078
    length 4.904
    axis 0 0 0 xyz
  end
  begin
    id 2
    name RightUpLeg
    direction -0.00334265 -0.999142 0.0412837
    length 17.4976
    axis -0.59612 0.00940841 -0.192072 xyz
    dof rx ry rz
  end
  begin
    id 3
    name RightLeg
    direction 0.000365068 -0.988824 -0.149089
    length 16.5821
    axis 6.58657 0.0604092 -0.318554 xyz
    dof rx ry rz
  end
  begin
    id 4
    name RightFoot
    direction 0.00079069 -0.460991 0.887405
    length 3.77069
    axis 0.000105557 -0.120464 -0.188919 xyz
    dof rx ry rz
  end
  begin
    id 5
    name RightToes
    direction 0.00124768 -0.014065 0.9999
    length 3.85082
    axis 0.00053932 0.542178 -0.142707 xyz
    dof rx ry rz
  end
  begin
    id 6
    name SpineDummy
    direction 8.3039e-015 1 4.58682e-016
    length 4.6813
    axis 0 0 0 xyz
  end
  begin
    id 7
    name Spine
    direction 4.12799e-006 0.999988 0.00494944
    length 10.1015
    axis -0.00149944 0.000129667 -0.000235877 xyz
    dof rx ry rz
  end
  begin
    id 8
    name Spine1
    direction 0 0 0
    length 0
    axis -0.00160567 0.000129431 -0.000308381 xyz
    dof rx ry rz
  end
  begin
    id 9
    name HEadDummy
    direction 5.38513e-006 0.999999 0.00127044
    length 3.43865
    axis -0.00160567 0.000129431 -0.000308381 xyz
  end
  begin
    id 10
    name HEad
    direction -0.0226495 0.980942 0.192974
    length 5.12695
    axis -0.00160642 -0.114462 -0.000307946 xyz
    dof rx ry rz
  end
  begin
    id 11
    name LeftShoulder1Dummy
    direction 0.99889 -0.0402564 -0.0244456
    length 3.5433
    axis -0.00160567 0.000129431 -0.000308381 xyz
  end
  begin
    id 12
    name LeftShoulder1
    direction 0.999464 -0.00142945 0.0326977
    length 4.05031
    axis 0.393425 -0.0796525 -0.0507861 xyz
    dof rx ry rz
  end
  begin
    id 13
    name LeftArm
    direction 0.998564 -0.000899612 -0.053557
    length 10.3537
    axis -22.9476 0.126974 0.960871 xyz
    dof rx ry rz
  end
  begin
    id 14
    name LeftForeArm
    direction 0.998903 0.00865904 0.0460121
    length 8.70632
    axis -9.91856 -0.0656997 -0.178106 xyz
    dof rx ry rz
  end
  begin
    id 15
    name LeftHand
    direction 0.992938 -0.0411687 0.11126
    length 5.32135
    axis -0.00981066 -0.00340928 0.18486 xyz
    dof rx ry rz
  end
  begin
    id 16
    name RightShoulderDummy
    direction -0.998891 -0.0402456 -0.0244411
    length 3.5433
    axis -0.00160567 0.000129431 -0.000308381 xyz
  end
  begin
    id 17
    name RightShoulder
    direction -0.999353 -0.00388479 0.0357579
    length 4.05031
    axis 1.48787 0.256014 0.157284 xyz
    dof rx ry rz
  end
  begin
    id 18
    name RightArm
    direction -0.998583 -0.000660455 -0.0532032
    length 10.3947
    axis -22.4211 -0.109147 -0.943573 xyz
    dof rx ry rz
  end
  begin
    id 19
    name RightForeArm
    direction -0.998898 0.00868588 0.0461311
    length 8.68355
    axis -9.92343 0.0658342 0.178556 xyz
    dof rx ry rz
  end
  begin
    id 20
    name RightHand
    direction -0.992843 -0.0414545 0.112004
    length 5.28593
    axis -0.00982288 0.00332907 -0.185539 xyz
    dof rx ry rz
  end
  begin
    id 21
    name LeftUpLegDummy
    direction 0.718183 -0.695806 0.00816078
    length 4.904
    axis 0 0 0 xyz
  end
  begin
    id 22
    name LeftUpLeg
    direction 0.00445374 -0.999139 0.0412407
    length 17.4976
    axis -0.593655 -0.0138231 0.255969 xyz
    dof rx ry rz
  end
  begin
    id 23
    name LeftLeg
    direction -0.00154847 -0.988829 -0.149046
    length 16.5821
    axis 6.5841 -0.0555156 0.250722 xyz
    dof rx ry rz
  end
  begin
    id 24
    name LeftFoot
    direction -0.00417678 -0.460985 0.887398
    length 3.77069
    axis 5.53694e-005 4.88088e-005 -0.000136194 xyz
    dof rx ry rz
  end
  begin
    id 25
    name LeftToes
    direction 0.00818061 -0.00485256 0.999955
    length 3.85048
    axis 6.41179e-005 4.88477e-005 -0.000136145 xyz
    dof rx ry rz
  end
:hierarchy
  begin
    root RightUpLegDummy SpineDummy LeftUpLegDummy
    RightUpLegDummy RightUpLeg
    RightUpLeg RightLeg
    RightLeg RightFoot
    RightFoot RightToes
    SpineDummy Spine
    Spine Spine1
    Spine1 HEadDummy LeftShoulder1Dummy RightShoulderDummy
    HEadDummy HEad
    LeftShoulder1Dummy LeftShoulder1
    LeftShoulder1 LeftArm
    LeftArm LeftForeArm
    LeftForeArm LeftHand
    RightShoulderDummy RightShoulder
    RightShoulder RightArm
    RightArm RightForeArm
    RightForeArm RightHand
    LeftUpLegDummy LeftUpLeg
    LeftUpLeg LeftLeg
    LeftLeg LeftFoot
    LeftFoot LeftToes
  end

:SAMPLES-PER-SECOND 30
:FULLY-SPECIFIED
:DEGREES
30
root  -78.5644 40.4245 -0.49054 -35.2954 88.3625 -37.3023
RightUpLeg  -2.90592 2.77959 3.46361
RightLeg  0.676687 7.0807 0.137254
RightFoot  -1.15923 0.348575 -3.40317
RightToes  -6.40286e-010 -1.59028e-015 9.93923e-017
Spine  -13.3958 -0.399377 1.98636
Spine1  13.1775 -0.193783 -1.96597
HEad  -5.87154 0.887379 -0.446592
LeftShoulder1  9.93923e-017 0 1.22299e-017
LeftArm  20.1157 43.8553 -79.9888
LeftForeArm  -38.1114 -20.6667 3.82787
LeftHand  0.984192 6.9633 -3.76812
RightShoulder  1.98785e-016 -4.96962e-017 1.55301e-017
RightArm  21.8388 -46.7002 86.0967
RightForeArm  -46.6022 19.7239 -11.8144
RightHand  1.07149 -10.2762 -3.6102
LeftUpLeg  -3.77462 -0.23388 -0.838659
LeftLeg  1.63643 -6.83687 -0.361506
LeftFoot  -0.852639 -0.103845 0.948961
LeftToes  8.73142e-011 -6.07963e-011 6.03181e-012
31
root  -78.5677 40.4247 -0.492833 -34.4217 88.3343 -36.4464
RightUpLeg  -2.95042 2.78261 3.45537
RightLeg  0.706874 7.12272 0.13075
RightFoot  -1.16727 0.346222 -3.37834
RightToes  -6.40286e-010 -1.59028e-015 9.93923e-017
Spine  -13.398 -0.386096 2.01279
Spine1  13.1806 -0.16612 -2.02452
HEad  -6.17489 1.19217 -0.392056
LeftShoulder1  9.93923e-017 0 1.22299e-017
LeftArm  20.0392 43.8379 -79.9814
LeftForeArm  -37.6943 -20.6343 3.81011
LeftHand  0.973407 6.85658 -4.08077
RightShoulder  1.98785e-016 -4.96962e-017 1.55301e-017
RightArm  21.7018 -46.6957 86.1317
RightForeArm  -46.5208 19.7103 -11.7133
RightHand  1.07354 -10.3041 -3.56719
LeftUpLeg  -3.78905 -0.241141 -0.848954
LeftLeg  1.62282 -6.79046 -0.357744
LeftFoot  -0.846004 -0.103581 0.946336
LeftToes  8.73142e-011 -6.07963e-011 6.03181e-012
32
root  -78.5677 40.4249 -0.494697 -34.3878 88.3261 -36.3803
RightUpLeg  -2.91824 2.78043 3.4555
RightLeg  0.712081 7.13718 0.129377
RightFoot  -1.17418 0.347285 -3.38956
RightToes  -6.40286e-010 -1.59028e-015 9.93923e-017
Spine  -13.3669 -0.385192 2.02249
Spine1  13.1784 -0.158427 -2.05428
HEad  -6.25792 1.25204 -0.363195
LeftShoulder1  9.93923e-017 0 1.22299e-017
LeftArm  20.091 43.8449 -79.9704
LeftForeArm  -37.9078 -20.6943 3.91742
LeftHand  0.978357 6.90409 -4.04216
RightShoulder  1.98785e-016 -4.96962e-017 1.55301e-017
RightArm  21.6816 -46.694 86.1583
RightForeArm  -46.521 19.7113 -11.7267
RightHand  1.07914 -10.3411 -3.59492
LeftUpLeg  -3.76939 -0.235029 -0.847021
LeftLeg  1.65552 -6.78701 -0.351311
LeftFoot  -0.86424 -0.102065 0.931291
LeftToes  8.73142e-011 -6.07963e-011 6.03181e-012
33
root  -78.5626 40.425 -0.495932 -35.359 88.3481 -37.2838
RightUpLeg  -2.81831 2.76789 3.46189
RightLeg  0.686421 7.11203 0.134481
RightFoot  -1.175 0.350357 -3.42197
RightToes  -6.40286e-010 -1.59028e-015 9.93923e-017
Spine  -13.3488 -0.395585 2.00603
Spine1  13.2072 -0.17404 -2.03243
HEad  -6.17781 1.14417 -0.414894
LeftShoulder1  9.93923e-017 0 1.22299e-017
LeftArm  20.1241 43.8374 -79.949
LeftForeArm  -38.16 -20.7406 3.99385
LeftHand  0.983946 6.9603 -3.84015
RightShoulder  1.98785e-016 -4.96962e-017 1.55301e-017
RightArm  21.5767 -46.7024 86.1738
RightForeArm  -46.3865 19.7064 -11.7623
RightHand  1.067 -10.2655 -3.51715
LeftUpLeg  -3.70912 -0.222009 -0.836214
LeftLeg  1.69248 -6.83342 -0.344853
LeftFoot  -0.891835 -0.101644 0.927121
LeftToes  8.73142e-011 -6.07963e-011 6.03181e-012
34
root  -78.5543 40.425 -0.497562 -37.3171 88.3912 -39.1734
RightUpLeg  -2.70042 2.74917 3.47422
RightLeg  0.64343 7.05602 0.144408
RightFoot  -1.17376 0.351268 -3.43158
RightToes  -6.40286e-010 -1.59028e-015 9.93923e-017
Spine  -13.3628 -0.410977 1.96636
Spine1  13.2572 -0.205181 -1.9624
HEad  -6.12048 1.12374 -0.519668
LeftShoulder1  9.93923e-017 0 1.22299e-017
LeftArm  19.9773 43.7921 -79.9155
LeftForeArm  -37.8817 -20.6895 3.92809
LeftHand  0.976938 6.89545 -3.79952
RightShoulder  1.98785e-016 -4.96962e-017 1.55301e-017
RightArm  21.442 -46.718 86.1806
RightForeArm  -46.2409 19.7 -11.795
RightHand  1.05543 -10.1958 -3.43272
LeftUpLeg  -3.63498 -0.208436 -0.818779
LeftLeg  1.70388 -6.91857 -0.338178
LeftFoot  -0.913876 -0.103061 0.941183
LeftToes  8.73142e-011 -6.07963e-011 6.03181e-012
35
root  -78.5475 40.425 -0.500583 -39.4888 88.4275 -41.2972
RightUpLeg  -2.60865 2.73879 3.49023
RightLeg  0.601584 6.99877 0.154498
RightFoot  -1.17163 0.349431 -3.41219
RightToes  -6.40286e-010 -1.59028e-015 9.93923e-017
Spine  -13.3734 -0.422005 1.8966
Spine1  13.2758 -0.241931 -1.84458
HEad  -6.10858 1.14604 -0.632219
LeftShoulder1  9.93923e-017 0 1.22299e-017
LeftArm  19.5062 43.7264 -79.8762
LeftForeArm  -37.1453 -20.5417 3.73181
LeftHand  0.968733 6.81741 -3.87472
RightShoulder  1.98785e-016 -4.96962e-017 1.55301e-017
RightArm  21.4528 -46.7215 86.1632
RightForeArm  -46.3375 19.7067 -11.835
RightHand  1.06712 -10.2853 -3.44929
LeftUpLeg  -3.58413 -0.191004 -0.798542
LeftLeg  1.71076 -7.00282 -0.333538
LeftFoot  -0.929329 -0.105215 0.962559
LeftToes  8.73142e-011 -6.07963e-011 6.03181e-012
36
root  -78.5438 40.4249 -0.504346 -40.8496 88.442 -42.6316
RightUpLeg  -2.55708 2.73931 3.50167
RightLeg  0.575883 6.96422 0.160916
RightFoot  -1.17084 0.347281 -3.38952
RightToes  -6.40286e-010 -1.59028e-015 9.93923e-017
Spine  -13.3685 -0.422803 1.81027
Spine1  13.2577 -0.271434 -1.71062
HEad  -6.0529 0.99484 -0.738121
LeftShoulder1  9.93923e-017 0 1.22299e-017
LeftArm  18.6697 43.6569 -79.8111
LeftForeArm  -36.2233 -20.3236 3.4521
LeftHand  0.974449 6.87191 -3.81424
RightShoulder  1.98785e-016 -4.96962e-017 1.55301e-017
RightArm  21.5586 -46.7108 86.1224
RightForeArm  -46.6115 19.7217 -11.8742
RightHand  1.09317 -10.4794 -3.50407
LeftUpLeg  -3.56497 -0.169989 -0.783185
LeftLeg  1.73229 -7.05142 -0.334898
LeftFoot  -0.941033 -0.10658 0.976105
LeftToes  8.73142e-011 -6.07963e-011 6.03181e-012
37
root  -78.5424 40.4247 -0.507372 -41.3485 88.4455 -43.1222
RightUpLeg  -2.54338 2.73966 3.5042
RightLeg  0.575872 6.94944 0.163735
RightFoot  -1.17364 0.346147 -3.37756
RightToes  -6.40286e-010 -1.59028e-015 9.93923e-017
Spine  -13.3705 -0.417138 1.75715
Spine1  13.2349 -0.281203 -1.63707
HEad  -6.00033 0.765651 -0.798586
LeftShoulder1  9.93923e-017 0 1.22299e-017
LeftArm  17.7712 43.5785 -79.6983
LeftForeArm  -35.2851 -20.0833 3.15249
LeftHand  0.985031 6.97322 -3.63271
RightShoulder  1.98785e-016 -4.96962e-017 1.55301e-017
RightArm  21.5529 -46.6976 86.0967
RightForeArm  -46.7438 19.7258 -11.8752
RightHand  1.11012 -10.6127 -3.51057
LeftUpLeg  -3.56401 -0.155266 -0.775598
LeftLeg  1.75434 -7.07246 -0.341537
LeftFoot  -0.950375 -0.106613 0.97643
LeftToes  8.73142e-011 -6.07963e-011 6.03181e-012
38
root  -78.5427 40.4245 -0.509658 -41.6148 88.4512 -43.392
RightUpLeg  -2.55722 2.7404 3.50214
RightLeg  0.598909 6.9421 0.163884
RightFoot  -1.18436 0.345487 -3.37059
RightToes  -6.40286e-010 -1.59028e-015 9.93923e-017
Spine  -13.3682 -0.408038 1.75898
Spine1  13.197 -0.268099 -1.65163
HEad  -6.08489 0.77223 -0.774394
LeftShoulder1  9.93923e-017 0 1.22299e-017
LeftArm  17.294 43.4825 -79.5778
LeftForeArm  -34.5428 -19.9056 2.92724
LeftHand  0.979077 6.91865 -3.60589
RightShoulder  1.98785e-016 -4.96962e-017 1.55301e-017
RightArm  21.3604 -46.6785 86.1054
RightForeArm  -46.596 19.7086 -11.7902
RightHand  1.1129 -10.6492 -3.47905
LeftUpLeg  -3.5719 -0.152126 -0.772581
LeftLeg  1.76592 -7.09015 -0.348826
LeftFoot  -0.960751 -0.106234 0.972662
LeftToes  8.73142e-011 -6.07963e-011 6.03181e-012
39
root  -78.5437 40.4242 -0.51244 -41.7947 88.4544 -43.5758
RightUpLeg  -2.57678 2.74065 3.49773
RightLeg  0.624396 6.94142 0.159729
RightFoot  -1.1987 0.3447 -3.36229
RightToes  -6.40286e-010 -1.59028e-015 9.93923e-017
Spine  -13.3315 -0.389037 1.76103
Spine1  13.1237 -0.242893 -1.66833
HEad  -6.27991 1.02432 -0.735514
LeftShoulder1  9.93923e-017 0 1.22299e-017
LeftArm  17.3522 43.3735 -79.5326
LeftForeArm  -34.1773 -19.8434 2.83434
LeftHand  0.955051 6.68907 -3.86556
RightShoulder  1.98785e-016 -4.96962e-017 1.55301e-017
RightArm  21.0813 -46.6474 86.1107
RightForeArm  -46.3073 19.6771 -11.6208
RightHand  1.11078 -10.6644 -3.46
LeftUpLeg  -3.5826 -0.154526 -0.774168
LeftLeg  1.77476 -7.10158 -0.355156
LeftFoot  -0.970856 -0.106644 0.976735
LeftToes  8.73142e-011 -6.07963e-011 6.03181e-012
40
root  -78.5451 40.4239 -0.516021 -41.6154 88.4524 -43.3982
RightUpLeg  -2.5873 2.73972 3.48912
RightLeg  0.633475 6.94969 0.154221
RightFoot  -1.19881 0.343992 -3.35482
RightToes  -6.40286e-010 -1.59028e-015 9.93923e-017
Spine  -13.2885 -0.359028 1.71652
Spine1  13.063 -0.220741 -1.61261
HEad  -6.43129 1.22003 -0.79174
LeftShoulder1  9.93923e-017 0 1.22299e-017
LeftArm  17.572 43.2735 -79.5811
LeftForeArm  -34.081 -19.8573 2.84174
LeftHand  0.933413 6.466 -4.25335
RightShoulder  1.98785e-016 -4.96962e-017 1.55301e-017
RightArm  20.8607 -46.6129 86.0871
RightForeArm  -46.0277 19.6461 -11.4497
RightHand  1.10763 -10.6657 -3.48657
LeftUpLeg  -3.58955 -0.156592 -0.782334
LeftLeg  1.78056 -7.09212 -0.362035
LeftFoot  -0.971243 -0.107831 0.988511
LeftToes  8.73142e-011 -6.07963e-011 6.03181e-012
41
root  -78.5462 40.4234 -0.520056 -41.1699 88.45 -42.9624
RightUpLeg  -2.6026 2.73685 3.47685
RightLeg  0.637513 6.96038 0.152353
RightFoot  -1.19499 0.343624 -3.35094
RightToes  -6.40286e-010 -1.59028e-015 9.93923e-017
Spine  -13.2897 -0.335857 1.67772
Spine1  13.0751 -0.207392 -1.55685
HEad  -6.5075 1.24481 -0.891808
LeftShoulder1  9.93923e-017 0 1.22299e-017
LeftArm  17.588 43.2072 -79.6493
LeftForeArm  -34.0403 -19.8737 2.87223
LeftHand  0.930039 6.41955 -4.47845
RightShoulder  1.98785e-016 -4.96962e-017 1.55301e-017
RightArm  20.8001 -46.5732 86.0775
RightForeArm  -45.8249 19.6279 -11.3531
RightHand  1.10748 -10.6165 -3.56273
LeftUpLeg  -3.59758 -0.158191 -0.794669
LeftLeg  1.77589 -7.07048 -0.367355
LeftFoot  -0.96039 -0.108838 0.99851
LeftToes  8.73142e-011 -6.07963e-011 6.03181e-012
42
root  -78.5481 40.4229 -0.525714 -40.9355 88.4528 -42.744
RightUpLeg  -2.63462 2.72701 3.46048
RightLeg  0.660273 6.96897 0.157998
RightFoot  -1.20824 0.343387 -3.34844
RightToes  -6.40286e-010 -1.59028e-015 9.93923e-017
Spine  -13.3072 -0.336977 1.70963
Spine1  13.1276 -0.201798 -1.59666
HEad  -6.61211 1.28577 -0.879521
LeftShoulder1  9.93923e-017 0 1.22299e-017
LeftArm  17.4244 43.1696 -79.6877
LeftForeArm  -34.1374 -19.8712 2.87442
LeftHand  0.946063 6.58583 -4.28158
RightShoulder  1.98785e-016 -4.96962e-017 1.55301e-017
RightArm  20.8555 -46.5138 86.1171
RightForeArm  -45.738 19.6216 -11.3039
RightHand  1.11117 -10.5721 -3.65745
LeftUpLeg  -3.61241 -0.168887 -0.811438
LeftLeg  1.76697 -7.05593 -0.364755
LeftFoot  -0.950564 -0.109228 1.00238
LeftToes  8.73142e-011 -6.07963e-011 6.03181e-012
43
root  -78.5525 40.4223 -0.534803 -41.2433 88.4679 -43.0518
RightUpLeg  -2.65491 2.70156 3.43446
RightLeg  0.688498 6.97967 0.169413
RightFoot  -1.22304 0.343572 -3.35039
RightToes  -6.40286e-010 -1.59028e-015 9.93923e-017
Spine  -13.2671 -0.352808 1.75953
Spine1  13.1436 -0.208017 -1.65304
HEad  -6.76117 1.44986 -0.754252
LeftShoulder1  9.93923e-017 0 1.22299e-017
LeftArm  17.3156 43.1212 -79.7507
LeftForeArm  -34.5573 -19.8673 2.83194
LeftHand  0.97392 6.87016 -3.66075
RightShoulder  1.98785e-016 -4.96962e-017 1.55301e-017
RightArm  20.8301 -46.4598 86.1533
RightForeArm  -45.6905 19.6136 -11.2414
RightHand  1.11922 -10.5942 -3.75142
LeftUpLeg  -3.6166 -0.194679 -0.838163
LeftLeg  1.7578 -7.05054 -0.352021
LeftFoot  -0.945513 -0.109649 1.00656
LeftToes  8.73142e-011 -6.07963e-011 6.03181e-012
